<?xml version="1.0" encoding="utf-8"?>
<!-- Generator: Adobe Illustrator 23.0.1, SVG Export Plug-In . SVG Version: 6.00 Build 0)  -->
<svg version="1.1" id="Layer_1" xmlns="http://www.w3.org/2000/svg" xmlns:xlink="http://www.w3.org/1999/xlink" x="0px" y="0px"
	 viewBox="0 0 644.37 339.24" style="enable-background:new 0 0 644.37 339.24;" xml:space="preserve">
<style type="text/css">
	.st0{fill:#C06742;}
	.st1{fill:#F26522;}
	.st2{fill:#00AEEF;}
	.st3{fill:#3D4165;}
	.st4{clip-path:url(#SVGID_2_);fill:#010101;}
	.st5{clip-path:url(#SVGID_2_);fill:none;stroke:#FFFFFF;stroke-miterlimit:10;}
	.st6{clip-path:url(#SVGID_2_);fill:#01B582;}
	.st7{clip-path:url(#SVGID_2_);fill:#73C4A3;}
</style>
<rect x="257.75" y="0" width="128.87" height="339.24"/>
<rect x="128.87" y="0" class="st0" width="128.87" height="339.24"/>
<rect y="0" class="st1" width="128.87" height="339.24"/>
<rect x="515.5" y="0" class="st2" width="128.87" height="339.24"/>
<rect x="386.62" y="0" class="st3" width="128.87" height="339.24"/>
<g>
	<defs>
		<rect id="SVGID_1_" width="644.37" height="339.24"/>
	</defs>
	<clipPath id="SVGID_2_">
		<use xlink:href="#SVGID_1_"  style="overflow:visible;"/>
	</clipPath>
	<path class="st4" d="M603.94,264.3c0.01,0.15,0.02,0.3,0.02,0.45c0,3.76-3.06,6.82-6.82,6.82c-3.76,0-6.82-3.06-6.82-6.82
		c0-0.04,0-0.08,0-0.13c-12.54,3.38-21.27,14.75-21.27,27.76c0,15.85,12.9,28.75,28.75,28.75c15.85,0,28.75-12.9,28.75-28.75
		C626.54,278.93,617.05,267.16,603.94,264.3"/>
	<path class="st5" d="M603.94,264.3c0.01,0.15,0.02,0.3,0.02,0.45c0,3.76-3.06,6.82-6.82,6.82c-3.76,0-6.82-3.06-6.82-6.82
		c0-0.04,0-0.08,0-0.13c-12.54,3.38-21.27,14.75-21.27,27.76c0,15.85,12.9,28.75,28.75,28.75c15.85,0,28.75-12.9,28.75-28.75
		C626.54,278.93,617.05,267.16,603.94,264.3"/>
	<path class="st6" d="M610.59,295.01c-0.98-1.7-3.15-2.28-4.85-1.3l-11.3,6.52c-1.7,0.98-2.28,3.15-1.3,4.85
		c1.11,1.91,3.55,2.57,5.47,1.46l10.52-6.08C611.04,299.37,611.69,296.92,610.59,295.01"/>
	<path class="st7" d="M596.26,307.17L596.26,307.17c-2.17,0-3.92-1.62-3.92-3.61V281.8c0-1.99,1.76-3.61,3.92-3.61
		c2.16,0,3.92,1.61,3.92,3.61v21.75C600.18,305.55,598.42,307.17,596.26,307.17"/>
	<path class="st7" d="M601.91,264.75c0,2.64-2.14,4.78-4.78,4.78c-2.64,0-4.78-2.14-4.78-4.78c0-2.64,2.14-4.78,4.78-4.78
		C599.78,259.97,601.91,262.11,601.91,264.75"/>
</g>
</svg>
